# Blender 4.5.5 LTS
# www.blender.org
mtllib teste2.mtl
o Object_0
v -0.810977 -0.064363 -1.462333
v -0.797036 -0.065503 0.717696
v -0.978203 0.464437 -1.470615
v -0.972445 0.437266 0.695321
v -1.300138 -0.110705 -1.462333
v -1.300138 -0.110705 0.720869
v -1.400545 0.432521 -1.462333
v -1.428785 0.437498 0.711122
v -1.119921 0.028320 -2.373717
v -1.550289 0.169106 0.715045
v -1.611341 0.179693 -1.424497
v -3.533847 0.207765 0.846069
v -1.665721 0.216261 -0.239431
v 0.810977 -0.064363 -1.462333
v 0.798214 -0.065429 0.717997
v 0.980827 0.464381 -1.470385
v 0.975326 0.437726 0.695779
v 1.302712 -0.110705 -1.462333
v 1.302712 -0.110705 0.720869
v 1.403119 0.432521 -1.462333
v 1.430130 0.437395 0.711772
v 1.119921 0.028320 -2.373717
v 1.552850 0.169123 0.715042
v 1.611071 0.179679 -1.424746
v 3.533845 0.207765 0.846068
v 1.668296 0.216261 -0.239431
v -0.705113 -0.158589 -0.137548
v -0.906675 -0.333633 2.103814
v -0.620462 0.489161 -0.144174
v -0.803253 0.453118 2.105966
v 0.701472 -0.161081 -0.158624
v 0.906913 -0.333106 2.103857
v 0.620462 0.489161 -0.144174
v 0.803253 0.453118 2.105966
v 0.332114 0.780083 2.105966
v 0.257453 0.764636 -0.144174
v -0.257453 0.764636 -0.144174
v -0.332114 0.780083 2.105966
v 0.131200 0.343943 -2.485574
v -0.425752 0.023114 -0.833615
v 0.257278 0.493992 -1.088047
v -0.255235 0.511452 -1.057144
v 0.428113 0.021887 -0.825061
v -0.370167 0.314449 3.402839
v 0.000000 0.154472 3.722771
v 0.000000 -0.399052 3.921010
v -0.151347 0.290634 -2.486537
v 0.366641 0.328972 3.393091
v -0.427372 -0.329540 2.105966
v 0.427372 -0.329540 2.105966
v -0.286852 0.316461 2.105627
v 0.310403 0.287196 2.105805
v 0.423779 -0.398734 3.696098
v -0.424063 -0.401137 3.696457
v -0.836722 -0.306369 1.107048
v -0.442819 -0.342412 1.076154
v 0.442819 -0.342412 1.076154
v 0.836722 -0.306369 1.107048
v 0.607589 -0.656505 1.488079
v 1.143092 -0.656505 1.488079
v 0.669378 -0.790381 2.152308
v 1.168837 -0.790381 2.152308
v -0.664120 -0.793647 1.840072
v -1.143092 -0.656505 1.488079
v -1.168837 -0.790381 2.152308
v -0.893362 -0.520055 2.788216
v -0.890788 -0.669378 2.788216
v -0.722575 -0.596197 2.962421
v 0.890788 -0.669378 2.788216
v 0.893362 -0.520055 2.788216
v 0.712407 -0.593948 2.935168
v 0.852729 -0.595033 6.153959
v -0.788703 -0.596037 6.451533
vn 0.0226 -0.9987 -0.0466
vn -0.0116 -0.0485 -0.9988
vn -0.0895 0.9960 -0.0000
vn -0.0935 0.9868 0.1320
vn -0.9161 -0.2853 0.2815
vn 0.0198 0.9998 0.0044
vn -0.0225 -0.9987 -0.0466
vn 0.0110 -0.0480 -0.9988
vn -0.0231 -0.9992 0.0320
vn 0.0938 0.9956 0.0010
vn -0.0943 0.9955 0.0011
vn -0.9535 -0.3015 -0.0012
vn -0.0041 -0.0245 -0.9997
vn 0.9521 -0.3059 -0.0013
vn 0.7162 -0.5290 0.4552
vn -0.7752 -0.6291 0.0568
vn 0.0035 -0.0240 -0.9997
vn -0.0009 -0.9999 -0.0125
vn -0.6807 0.6915 0.2420
vn -0.7195 -0.5239 0.4559
vn -0.0346 0.0011 -0.9994
vn -0.9011 -0.4138 -0.1294
vn 0.0894 0.9960 -0.0000
vn 0.0930 0.9869 0.1319
vn 0.9150 -0.2897 0.2807
vn 0.0765 -0.9025 0.4238
vn -0.0003 -0.9999 -0.0123
vn 0.9433 -0.3318 0.0054
vn -0.6845 0.7288 -0.0150
vn 0.7709 -0.6345 0.0550
vn 0.0351 0.0039 -0.9994
vn -0.9443 -0.3292 0.0059
vn -0.0762 -0.9025 0.4239
vn -0.6589 -0.7521 0.0099
vn 0.6601 -0.7511 0.0103
vn -0.0198 0.9998 0.0044
vn 0.7455 0.6665 -0.0000
vn 0.0231 -0.9992 0.0319
vn 0.9026 -0.4105 -0.1294
vn 0.6811 0.7320 -0.0158
vn -0.0753 -0.9972 0.0032
vn 0.3781 0.9256 -0.0162
vn 0.0754 -0.9971 0.0033
vn -0.9998 0.0172 -0.0117
vn 0.6777 0.6950 0.2400
vn -0.7456 0.6664 -0.0000
vn -0.0000 0.0007 -1.0000
vn 0.0002 0.0003 -1.0000
vn -0.0006 0.0026 -1.0000
vn -0.0044 -0.0011 -1.0000
vn -0.0005 0.0007 -1.0000
vn 0.0001 0.0027 -1.0000
vn 0.0045 -0.0015 -1.0000
vn -0.9884 -0.1305 0.0782
vn -0.9287 -0.1462 0.3408
vn -0.5700 -0.8213 0.0246
vn -0.9889 -0.1250 0.0803
vn -0.0000 -1.0000 0.0069
vn -0.9225 -0.3822 0.0547
vn 0.5700 -0.8213 0.0246
vn 0.9305 -0.3621 0.0554
vn 0.6041 -0.7961 0.0363
vn -0.0167 -0.9635 0.2672
vn -0.6041 -0.7961 0.0363
vn -0.0028 0.9991 0.0435
vn 0.9287 -0.1745 0.3272
vn 0.9886 -0.1284 0.0789
vn 0.5901 -0.7776 0.2171
vn 0.9231 -0.1169 0.3664
vn 0.9884 -0.1301 0.0782
vn -0.0028 1.0000 -0.0039
vn -0.9264 -0.1233 0.3558
vn -0.4468 -0.3016 -0.8423
vn -0.5218 -0.3625 -0.7722
vn 0.9753 -0.2121 0.0623
vn 0.4473 -0.3016 -0.8420
vn 0.0115 -0.8890 -0.4578
vn 0.0197 -0.9998 -0.0003
vn 0.5172 -0.3579 -0.7774
vn -0.9967 -0.0807 -0.0058
vn 0.1961 0.9485 -0.2488
vn -0.0000 0.9999 -0.0125
vn -0.0862 0.9850 -0.1497
vn -0.0000 0.9803 0.1976
vn -0.0000 0.9894 0.1453
vn -0.1001 0.9872 0.1240
vn -0.0013 0.9642 0.2652
vn 0.1003 0.9867 0.1278
vn -0.1816 0.9588 0.2184
vn 0.1824 -0.9696 0.1630
vn -0.9529 -0.2802 0.1160
vn 0.9530 -0.2812 0.1127
vn -0.0000 0.7952 0.6063
vn -0.1059 0.8693 0.4828
vn -0.9150 0.0158 -0.4031
vn -0.8626 -0.5013 -0.0676
vn 0.8804 0.4462 -0.1604
vn 0.8815 0.4721 0.0073
vn 0.1800 -0.9498 -0.2559
vn -0.1190 0.6816 0.7220
vn 0.0095 -0.9557 -0.2943
vn -0.7718 -0.6347 0.0373
vn 0.9150 0.0158 -0.4031
vn 0.8622 -0.5021 -0.0678
vn 0.1190 0.6816 0.7220
vn -0.8502 -0.5033 -0.1543
vn -0.8496 0.5102 -0.1340
vn -0.8926 0.4509 0.0078
vn 0.8848 0.4658 0.0116
vn 0.8498 -0.5041 -0.1538
vn 0.7716 -0.6351 0.0368
vn -0.3924 0.9198 -0.0075
vn -0.4007 -0.9162 -0.0076
vn 0.9995 0.0172 -0.0282
vn 0.3666 -0.9302 -0.0163
vn 0.0003 0.0003 -1.0000
vn -0.5893 -0.7766 0.2228
vn -0.0000 -0.9613 0.2756
vn -0.0000 0.9990 0.0450
vn 0.9970 -0.0774 -0.0056
vn -0.0489 -0.9982 0.0345
vn -0.9813 -0.1861 0.0489
vn -0.0000 0.9824 -0.1869
vn -0.2295 0.9565 -0.1802
vn 0.1305 0.9709 0.2007
vn 0.0040 0.9888 0.1489
vn 0.0055 0.9670 0.2547
vn -0.0002 0.9872 0.1597
vn -0.0273 -0.9937 0.1091
vn -0.0084 -0.9535 -0.3012
vn -0.1633 -0.9527 -0.2563
vt 0.593750 0.484375
vt 0.000000 0.484375
vt 0.031250 0.281250
vt 0.203125 0.983861
vt 0.031250 0.984375
vt 0.137023 0.975585
vt 0.078125 0.984375
vt 0.078125 0.656250
vt 0.203125 0.656250
vt 0.125000 0.531250
vt 0.162039 0.656250
vt 0.593750 0.984375
vt 0.593317 0.703125
vt 0.000000 0.984375
vt 0.537751 0.479284
vt 0.113269 0.975742
vt 0.234375 0.984375
vt 0.046875 0.983914
vt 0.000463 0.093750
vt 0.171875 0.656250
vt 0.046875 0.656250
vt 0.088119 0.656250
vt 0.015625 0.662623
vt 0.062500 0.656250
vt 0.187500 0.656250
vt 0.234375 0.662578
vt 0.265625 0.843750
vt 0.171875 0.984375
vt 0.062313 0.982690
vt 0.187849 0.982805
vt 0.000000 0.843750
vt 0.000440 0.703125
vt 0.000456 0.093750
vt 0.885658 0.968750
vt 0.875000 0.046875
vt 0.921875 0.046875
vt 0.898440 0.968750
vt 0.328125 0.890625
vt 0.600187 0.602938
vt 0.640625 0.890625
vt 0.093750 0.703125
vt 0.338766 0.588766
vt 0.062334 0.251161
vt 0.281250 0.250000
vt 0.859375 0.703125
vt 0.890747 0.250852
vt 0.671875 0.250000
vt 0.280089 0.984375
vt 0.015625 0.984375
vt 0.015625 0.093750
vt 0.078125 0.234375
vt 0.246414 0.234375
vt 0.307864 0.578125
vt 0.937500 0.968750
vt 0.671875 0.968750
vt 0.625000 0.031250
vt 0.223943 0.079284
vt 0.281250 0.968750
vt 0.265625 0.593750
vt 0.328125 0.031250
vt 0.000000 0.968750
vt 0.221359 0.079571
vt 0.280398 0.984375
vt 0.109375 0.031250
vt 0.626284 0.031250
vt 0.328125 0.218750
vt 0.322989 0.031250
vt 0.828125 0.031250
vt 0.953125 0.687500
vt 0.640625 0.031250
vt 0.669109 0.808801
vt 0.306715 0.578125
vt 0.246079 0.234375
vt 0.125000 0.218750
vt 0.031250 0.562500
vt 0.687500 0.859375
vt 0.906250 0.859375
vt 0.796875 0.937500
vt 0.808801 0.578125
vt 0.937500 0.578125
vt 0.843750 0.859375
vt 0.687500 0.911804
vt 0.687500 0.908429
vt 0.015625 0.578125
vt 0.015625 0.921719
vt 0.808895 0.578125
vt 0.765625 0.953125
vt 0.609375 0.500000
vt 0.625000 0.953125
vt 0.093750 0.593750
vt 0.515625 0.015625
vt 0.078125 0.015625
vt 0.588387 0.290115
vt 0.953125 0.500000
vt 0.937500 0.031250
vt 0.562500 0.031250
vt 0.843750 0.343750
vt 0.265625 0.937500
vt 0.703125 0.937500
vt 0.890625 0.953125
vt 0.265625 0.015625
vt 0.703125 0.015625
vt 0.125000 0.343750
vt 0.078125 0.953125
vt 0.179202 0.031250
vt 0.469945 0.968750
vt 0.323071 0.031250
vt 0.113800 0.968750
vt 0.400654 0.968750
vt 0.029943 0.968750
vt 0.656250 0.046875
vt 0.734375 0.265625
vt 0.937500 0.265625
vt 0.031250 0.265625
vt 0.225746 0.464088
vt 0.312500 0.046875
vt 0.953125 0.625000
vt 0.843750 0.968750
vt 0.843750 0.593750
vt 0.765625 0.968750
vt 0.750000 0.625000
vt 0.656250 0.593750
vt 0.828125 0.062500
vt 0.203125 0.968750
vt 0.140625 0.593750
vt 0.312500 0.593750
vt 0.015625 0.625000
vt 0.156250 0.062500
vt 0.125000 0.968750
vt 0.898533 0.968750
vt 0.898342 0.968750
vt 0.905487 0.968750
vt 0.911217 0.968750
vt 0.828125 0.218750
vt 0.625000 0.218750
vt 0.015625 0.909909
vt 0.500000 0.593750
s 0
usemtl tex_0
f 25/1/1 23/2/1 26/3/1
f 2/4/2 10/5/2 4/6/2
f 6/7/3 2/4/3 5/8/3
f 5/8/4 1/9/4 9/10/4
f 9/10/5 1/9/5 3/11/5
f 10/12/6 11/13/6 12/14/6
f 13/3/7 10/2/7 12/15/7
f 17/16/8 23/17/8 15/18/8
f 26/3/9 24/19/9 25/1/9
f 18/20/10 14/21/10 15/18/10
f 2/4/11 1/9/11 5/8/11
f 4/6/12 3/11/12 1/9/12
f 2/4/13 6/7/13 10/5/13
f 14/21/14 16/22/14 17/16/14
f 11/23/15 9/10/15 7/24/15
f 20/25/16 24/26/16 26/27/16
f 23/17/17 19/28/17 15/18/17
f 3/11/18 4/6/18 8/29/18
f 22/10/19 18/20/19 24/26/19
f 20/25/20 22/10/20 24/26/20
f 8/29/21 4/6/21 10/5/21
f 26/27/22 23/17/22 21/30/22
f 15/18/23 19/28/23 18/20/23
f 22/10/24 14/21/24 18/20/24
f 16/22/25 14/21/25 22/10/25
f 3/11/26 7/24/26 9/10/26
f 21/30/27 17/16/27 16/22/27
f 17/16/28 15/18/28 14/21/28
f 23/17/29 24/26/29 18/20/29
f 13/31/30 11/23/30 7/24/30
f 23/17/31 17/16/31 21/30/31
f 1/9/32 2/4/32 4/6/32
f 22/10/33 20/25/33 16/22/33
f 26/27/34 21/30/34 20/25/34
f 7/24/35 8/29/35 13/31/35
f 24/32/36 23/14/36 25/12/36
f 10/5/37 6/7/37 5/8/37
f 12/15/38 11/33/38 13/3/38
f 8/29/39 10/5/39 13/31/39
f 5/8/40 11/23/40 10/5/40
f 16/22/41 20/25/41 21/30/41
f 72/34/42 69/35/42 71/36/42
f 8/29/43 7/24/43 3/11/43
f 72/37/44 70/35/44 69/36/44
f 11/23/45 5/8/45 9/10/45
f 18/20/46 19/28/46 23/17/46
f 73/130/112 68/35/112 67/36/112
f 73/131/113 66/35/113 68/36/113
f 73/132/114 67/35/114 66/36/114
f 72/133/115 71/35/115 70/36/115
usemtl tex_10_additive
f 35/38/47 51/39/47 38/40/47
f 35/38/48 34/41/48 52/42/48
f 34/41/49 32/43/49 52/42/49
f 52/42/50 32/43/50 50/44/50
f 30/45/51 38/40/51 51/39/51
f 30/45/52 51/39/52 28/46/52
f 51/39/53 49/47/53 28/46/53
f 35/38/116 52/42/116 51/39/116
usemtl tex_2
f 32/48/54 34/49/54 33/50/54
f 41/51/55 43/52/55 31/53/55
f 34/54/56 35/55/56 36/56/56
f 33/50/57 31/57/57 32/48/57
f 38/58/58 36/56/58 35/55/58
f 32/48/59 31/57/59 58/59/59
f 37/60/60 38/58/60 30/61/60
f 55/59/61 27/62/61 28/63/61
f 30/61/62 29/64/62 37/60/62
f 41/65/63 37/66/63 42/67/63
f 36/56/64 33/68/64 34/54/64
f 50/69/65 54/70/65 53/71/65
f 27/72/66 40/73/66 42/51/66
f 28/63/67 27/62/67 29/50/67
f 42/67/68 37/66/68 29/74/68
f 42/51/69 29/75/69 27/72/69
f 29/50/70 30/49/70 28/63/70
f 54/76/71 46/77/71 53/78/71
f 31/53/72 33/75/72 41/51/72
f 41/65/117 33/134/117 36/135/117
f 38/58/58 37/60/58 36/56/58
f 41/65/118 36/135/118 37/66/118
f 50/69/119 49/95/119 54/70/119
usemtl tex_4_additive
f 53/79/73 46/80/73 45/81/73
f 53/79/74 45/81/74 48/82/74
f 44/83/75 49/84/75 51/85/75
f 45/81/76 46/80/76 54/86/76
f 48/82/77 45/81/77 44/83/77
f 51/85/78 48/82/78 44/83/78
f 44/83/79 45/81/79 54/86/79
f 48/82/80 50/84/80 53/79/80
f 44/83/120 54/86/120 49/84/120
f 51/85/121 52/136/121 48/82/121
f 48/82/122 52/136/122 50/84/122
usemtl tex_5
f 69/87/81 61/88/81 71/89/81
f 49/90/82 57/91/82 56/92/82
f 67/87/83 63/93/83 65/94/83
f 61/88/84 60/95/84 59/96/84
f 69/87/123 62/94/123 61/88/123
f 49/90/82 50/137/82 57/91/82
f 67/87/124 68/89/124 63/93/124
f 61/88/84 62/94/84 60/95/84
f 64/95/125 65/94/125 63/93/125
usemtl tex_6
f 31/97/85 56/98/85 57/99/85
f 57/99/86 58/100/86 31/97/86
f 40/101/87 31/97/87 43/102/87
f 27/103/88 55/104/88 56/98/88
f 31/97/126 27/103/126 56/98/126
f 40/101/127 27/103/127 31/97/127
usemtl tex_7
f 47/105/89 43/106/89 39/107/89
f 39/107/90 42/108/90 47/105/90
f 43/106/91 41/109/91 39/107/91
f 47/105/92 42/108/92 40/110/92
f 47/105/128 40/110/128 43/106/128
f 39/107/129 41/109/129 42/108/129
usemtl tex_8
f 57/111/93 59/112/93 60/113/93
f 64/114/94 63/115/94 56/116/94
f 62/117/95 69/118/95 70/118/95
f 60/113/96 62/117/96 32/119/96
f 71/120/97 61/121/97 50/122/97
f 59/112/98 57/111/98 50/122/98
f 71/120/99 32/119/99 70/118/99
f 60/113/100 58/123/100 57/111/100
f 68/124/101 28/125/101 49/126/101
f 32/119/102 58/123/102 60/113/102
f 66/117/103 67/118/103 65/118/103
f 28/125/104 65/127/104 64/114/104
f 56/116/105 55/128/105 64/114/105
f 70/118/106 32/119/106 62/117/106
f 49/126/107 63/115/107 68/124/107
f 49/126/108 56/116/108 63/115/108
f 50/122/109 61/121/109 59/112/109
f 65/127/110 28/125/110 66/129/110
f 64/114/111 55/128/111 28/125/111
f 71/120/130 50/122/130 32/119/130
f 68/124/131 66/129/131 28/125/131
o Object_1
v -0.260028 0.409350 -2.484422
v 0.257453 0.409350 -2.484422
v 0.102981 0.563822 -2.484422
v -0.102981 0.563822 -2.484422
v 0.102981 0.048916 -2.484422
v -0.102981 0.048916 -2.484422
v -0.260028 0.203388 -2.484422
v 0.257453 0.203388 -2.484422
v -0.159621 -0.087534 -2.559083
v 0.157046 -0.087534 -2.559083
v 0.393903 0.149323 -2.559083
v -0.393903 0.149323 -2.559083
v 0.157046 0.700272 -2.559083
v -0.159621 0.700272 -2.559083
v 0.393903 0.463415 -2.559083
v -0.393903 0.463415 -2.559083
vn -0.3476 -0.3438 0.8723
vn -0.0000 -0.0000 1.0000
vn 0.4800 -0.0000 0.8773
vn 0.3428 0.3428 0.8747
vn -0.0000 0.4800 0.8773
vn -0.4871 -0.0000 0.8734
vn 0.3428 -0.3428 0.8747
vn -0.0000 -0.4800 0.8773
vn -0.3356 0.3412 0.8781
vn -0.3356 -0.3412 0.8781
vn -0.3476 0.3438 0.8723
vt 0.468750 0.031250
vt 0.218750 0.281250
vt 0.093750 0.187500
vt 0.718750 0.718750
vt 0.781250 0.500000
vt 0.843750 0.812500
vt 0.968750 0.500000
vt 0.468750 0.187500
vt 0.250000 0.750000
vt 0.156250 0.500000
vt 0.468750 1.000000
vt 0.468750 0.812500
vt 0.000000 0.500000
vt 0.687500 0.250000
vt 0.781250 0.125000
vt 0.156250 0.875000
s 0
usemtl tex_11_transparent
f 82/138/132 80/139/132 85/140/132
f 75/141/133 80/139/133 81/142/133
f 88/143/134 81/142/134 84/144/134
f 79/145/133 81/142/133 80/139/133
f 75/141/133 77/146/133 74/147/133
f 86/148/135 75/141/135 88/143/135
f 86/148/136 77/146/136 76/149/136
f 85/140/137 74/147/137 89/150/137
f 84/144/138 78/151/138 83/152/138
f 83/152/139 79/145/139 82/138/139
f 87/153/140 74/147/140 77/146/140
f 82/138/141 79/145/141 80/139/141
f 75/141/133 74/147/133 80/139/133
f 88/143/134 75/141/134 81/142/134
f 79/145/133 78/151/133 81/142/133
f 75/141/133 76/149/133 77/146/133
f 86/148/135 76/149/135 75/141/135
f 86/148/136 87/153/136 77/146/136
f 85/140/137 80/139/137 74/147/137
f 84/144/138 81/142/138 78/151/138
f 83/152/139 78/151/139 79/145/139
f 87/153/142 89/150/142 74/147/142
