# Blender 4.5.5 LTS
# www.blender.org
mtllib teste3.mtl
o Object_0
v -0.623241 2.003534 -0.865581
v -0.275801 2.325108 -0.865842
v -0.970541 -0.237399 -0.865838
v 0.691248 1.909661 -0.865828
v 0.275801 2.325108 -0.865865
v 0.970541 -0.237399 -0.865822
v -0.687944 1.944211 0.456839
v 0.644897 2.028723 0.450240
v 0.275801 2.325108 1.281203
v -0.275801 2.325108 1.281227
v 0.871056 -0.219793 2.267258
v -1.106696 1.773506 -0.865889
v -1.106696 1.288236 -0.865875
v 0.139646 2.880202 0.450335
v -0.139646 2.880202 0.450311
v 0.000000 2.900956 -0.648527
v -0.624916 -0.237398 3.637744
v 0.624916 -0.237398 3.637756
v 0.209469 1.839838 3.358442
v -0.209469 1.839838 3.358467
v -0.209469 1.078767 4.192878
v 0.209469 1.078767 4.192853
v -0.209469 -0.237398 4.192878
v 0.209469 -0.237398 4.192853
v -0.624916 1.078767 3.637745
v 0.624916 1.078767 3.637756
v -0.970541 0.872788 -0.865866
v 0.970541 0.872788 -0.865851
v -0.691248 1.148589 -0.865821
v 0.691248 1.148589 -0.865834
v -0.691248 0.387518 2.461225
v 0.691248 0.387518 2.461212
v -1.106696 1.773506 0.450275
v -1.106696 1.288236 0.450289
v -0.867940 -0.229023 2.271724
v -0.691248 1.148590 0.450344
v 0.691248 1.148590 0.450331
v 1.106696 1.773506 0.450298
v 1.106696 1.288236 0.450313
v 1.106696 1.773506 -0.865866
v 1.106696 1.288236 -0.865851
v 0.555093 2.119130 -0.865867
v -1.273743 3.346674 -0.817455
v -0.555093 2.119130 0.450291
v 1.273743 3.346674 -0.817437
vn -0.0001 -0.0000 -1.0000
vn 0.6692 -0.5490 -0.5008
vn -0.8006 -0.0000 -0.5992
vn -0.0000 -0.7388 -0.6739
vn 0.8006 -0.0000 -0.5992
vn -0.6691 -0.5491 -0.5008
vn -0.9239 0.3768 -0.0666
vn 0.8414 -0.5170 -0.1573
vn -0.0321 -0.0207 0.9993
vn -0.9984 -0.0526 -0.0199
vn 0.5359 -0.4341 -0.7241
vn 1.0000 -0.0041 -0.0016
vn 0.8608 -0.5003 -0.0931
vn 0.9597 -0.2221 -0.1721
vn -0.9579 -0.2277 -0.1750
vn -0.8956 -0.4368 0.0848
vn -0.8407 -0.5175 -0.1595
vn 0.3775 -0.9260 -0.0000
vn 0.0029 0.0082 -1.0000
vn 1.0000 -0.0000 -0.0000
vn -0.3186 0.9479 -0.0000
vn -1.0000 -0.0000 -0.0000
vn -0.3114 -0.9503 -0.0000
vn 0.0001 -0.0000 -1.0000
vn -0.0000 -0.0000 1.0000
vn 0.3186 0.9479 -0.0000
vn -0.0007 -0.0000 1.0000
vn 0.0002 0.0003 1.0000
vn -0.0000 -0.0001 1.0000
vn -0.0001 0.0001 1.0000
vn 0.0003 -0.0003 1.0000
vn -0.0000 -0.9738 -0.2275
vn 0.8197 -0.5514 -0.1550
vn -0.8096 -0.5654 -0.1579
vn -0.0000 -0.9998 -0.0189
vn 0.7889 -0.6035 -0.1156
vn 0.5935 -0.8048 -0.0000
vn -0.9712 -0.2382 -0.0000
vn 0.8813 -0.4611 0.1033
vn -0.0000 -0.8315 -0.5555
vn -0.6261 -0.7797 -0.0000
vn -0.0053 1.0000 -0.0058
vn -0.0000 -0.3531 0.9356
vn -0.0000 1.0000 -0.0000
vn -0.0053 0.9999 0.0119
vn -0.6935 -0.7023 -0.1607
vn 0.9995 -0.0000 -0.0327
vn 0.6935 -0.7023 -0.1606
vn 0.9637 -0.2405 -0.1160
vn -0.9618 -0.2475 -0.1168
vn -0.9995 -0.0000 -0.0317
vn -0.9981 -0.0565 -0.0231
vn 0.9986 -0.0425 -0.0313
vn 0.9984 -0.0000 -0.0563
vn 0.8991 0.4332 0.0634
vn -0.9984 -0.0000 -0.0563
vn 0.4296 -0.9028 -0.0195
vn 0.0157 -0.0000 -0.9999
vn -0.4828 -0.8735 0.0620
vn -0.0000 -0.0001 -1.0000
vn 0.0001 -0.0000 1.0000
vn -0.0002 -0.0003 1.0000
vn -0.0001 -0.0001 1.0000
vn -0.0000 0.0008 1.0000
vn 0.6790 -0.7336 0.0293
vn -0.8813 -0.4611 0.1033
vn 0.9712 -0.2382 -0.0000
vn -0.5935 -0.8047 -0.0148
vn -0.0000 1.0000 -0.0027
vn -0.0000 1.0000 0.0061
vt 0.625000 0.020833
vt 0.312500 0.625000
vt 0.312500 0.020833
vt 0.625000 0.625000
vt 0.968750 0.625000
vt 0.625000 1.000000
vt 0.000000 0.020833
vt 0.000000 0.625000
vt 0.312500 1.000000
vt 0.968750 0.020833
vt 0.912970 0.520833
vt 0.937500 0.020833
vt 0.444466 0.020833
vt 0.982216 1.000000
vt 0.078125 1.000000
vt 0.000000 0.604167
vt 0.953125 0.520833
vt 0.984375 0.020833
vt 0.953125 0.020833
vt 0.359375 0.291667
vt 0.982793 1.000000
vt 0.984375 0.645833
vt 0.406250 0.020833
vt 0.468750 0.020833
vt 0.359375 0.020833
vt 0.968750 0.656250
vt 0.250000 1.000000
vt 0.250000 0.656250
vt 0.312500 0.531250
vt 0.000000 1.000000
vt 0.000000 0.437500
vt 0.968750 0.343750
vt 0.250000 0.343750
vt 0.250000 0.031250
vt 0.968750 1.000000
vt 0.312500 0.875000
vt 0.968750 0.031250
vt 0.968750 0.437500
vt 0.343750 1.000000
vt 0.783538 0.871949
vt 0.187500 0.916667
vt 0.812500 0.541667
vt 0.125000 0.541667
vt 0.125000 0.833333
vt 0.687500 1.000000
vt 0.859375 0.875000
vt 0.343750 0.968750
vt 0.343750 0.781250
vt 0.000000 0.406250
vt 0.340956 0.031250
vt 0.343750 0.187500
vt 0.937500 0.406250
vt 0.343750 0.687500
vt 0.843750 0.687500
vt 0.000000 0.937500
vt 0.343750 0.937500
vt 0.342498 0.091960
vt 0.913928 0.066339
vt 0.043636 0.066478
vt 0.187500 0.468750
vt 0.234375 0.187500
vt 0.125000 0.187500
vt 0.625000 0.031250
vt 0.031250 0.312500
vt 0.906250 0.312500
vt 0.984375 1.000000
vt 0.984375 0.781250
vt 0.077131 0.036409
vt 0.984375 0.031250
vt 0.593750 1.000000
vt 0.076942 0.044971
vt 0.937500 0.187500
vt 0.000000 0.781250
vt 0.312500 0.031250
s 0
usemtl tex_0
f 23/1/1 22/2/1 24/3/1
f 21/4/2 25/5/2 20/6/2
f 18/7/3 22/2/3 26/8/3
f 21/4/4 19/9/4 22/2/4
f 21/4/5 17/10/5 25/5/5
f 19/9/6 26/8/6 22/2/6
f 23/1/1 21/4/1 22/2/1
f 18/7/3 24/3/3 22/2/3
f 21/4/4 20/6/4 19/9/4
f 21/4/5 23/1/5 17/10/5
usemtl tex_1
f 45/11/7 4/12/7 8/13/7
f 7/14/8 20/15/8 25/16/8
f 45/17/9 42/18/9 4/19/9
f 32/20/10 8/21/10 37/22/10
f 44/23/11 7/24/11 43/11/11
f 7/14/12 31/20/12 36/22/12
f 42/12/13 45/11/13 8/24/13
f 31/20/14 17/7/14 35/25/14
f 18/7/15 32/20/15 11/25/15
f 43/11/16 1/12/16 44/24/16
f 8/21/17 26/16/17 19/15/17
f 32/20/52 26/16/52 8/21/52
f 7/14/53 25/16/53 31/20/53
f 31/20/54 25/16/54 17/7/54
f 43/11/55 7/24/55 1/12/55
f 18/7/56 26/16/56 32/20/56
usemtl tex_10
f 12/26/18 7/27/18 33/28/18
f 34/29/19 7/30/19 36/31/19
f 13/32/20 33/28/20 34/33/20
f 41/32/21 37/34/21 39/33/21
f 40/26/22 39/33/22 38/28/22
f 38/28/23 4/35/23 40/26/23
f 39/29/24 8/30/24 38/36/24
f 41/29/25 4/30/25 30/31/25
f 34/33/26 29/37/26 13/32/26
f 13/29/27 1/30/27 12/36/27
f 12/26/57 1/35/57 7/27/57
f 34/29/58 33/36/58 7/30/58
f 13/32/20 12/26/20 33/28/20
f 41/32/21 30/37/21 37/34/21
f 40/26/22 41/32/22 39/33/22
f 38/28/59 8/27/59 4/35/59
f 39/29/60 37/31/60 8/30/60
f 41/29/61 40/36/61 4/30/61
f 34/33/26 36/34/26 29/37/26
f 13/29/62 29/31/62 1/30/62
usemtl tex_2
f 6/7/25 27/38/25 3/10/25
f 5/39/28 1/40/28 42/41/28
f 29/42/29 28/31/29 30/43/29
f 29/42/30 4/44/30 42/41/30
f 6/7/25 28/31/25 29/42/25
f 29/42/31 42/41/31 1/40/31
f 6/7/63 29/42/63 27/38/63
f 5/39/64 2/70/64 1/40/64
f 30/43/25 4/44/25 29/42/25
usemtl tex_3
f 20/1/32 9/27/32 19/3/32
f 7/35/33 10/45/33 20/1/33
f 19/3/34 9/27/34 8/30/34
f 20/1/32 10/45/32 9/27/32
usemtl tex_5_additive
f 16/46/35 14/47/35 15/48/35
f 10/49/36 7/50/36 44/51/36
f 44/51/37 2/52/37 10/49/37
f 14/53/38 5/52/38 9/49/38
f 15/53/39 2/52/39 16/54/39
f 14/48/40 10/55/40 15/56/40
f 5/52/41 8/57/41 9/49/41
f 44/51/65 1/72/65 2/52/65
f 14/53/66 16/54/66 5/52/66
f 15/53/67 10/49/67 2/52/67
f 14/48/40 9/73/40 10/55/40
f 5/52/68 42/72/68 8/57/68
usemtl tex_6
f 6/30/42 35/58/42 11/59/42
f 6/30/69 3/35/69 35/58/69
usemtl tex_7
f 16/60/43 2/61/43 5/62/43
usemtl tex_8
f 23/63/44 18/64/44 17/65/44
f 35/35/45 18/64/45 11/30/45
f 23/63/44 24/74/44 18/64/44
f 35/35/70 17/65/70 18/64/70
usemtl tex_9
f 30/66/46 28/67/46 32/31/46
f 35/68/47 3/69/47 27/67/47
f 31/31/48 27/67/48 29/66/48
f 37/70/22 30/66/22 32/31/22
f 27/67/49 31/31/49 35/68/49
f 11/71/50 32/31/50 28/67/50
f 31/31/20 29/66/20 36/70/20
f 28/67/51 6/69/51 11/71/51
o Object_1
v 0.966728 -0.168201 -0.865379
v 1.000559 -0.108338 0.797983
v 1.471843 -0.387493 0.795971
v 1.259269 -0.095700 -0.865872
v 1.466285 -0.422430 -0.865881
v 1.782629 -0.469308 -0.868072
v 1.728121 -0.516691 0.795955
v 2.062069 -0.426987 0.795696
v 2.638394 -0.779045 -0.580281
v 2.653232 -0.810896 0.803160
v 2.147059 0.436394 0.795936
v 1.756050 0.576040 0.795983
v 1.545592 0.532353 -0.865841
v 2.147059 0.436394 -0.865869
v 1.403444 0.411956 0.795929
v 2.314635 0.080296 -0.865871
v 2.314635 0.080297 0.795934
v 2.171498 -0.310713 -0.865885
v 1.260306 0.020947 0.795954
v 1.478162 -0.735056 0.795991
v 1.519106 -0.750561 -0.865851
vn 0.0001 -0.0000 1.0000
vn -0.0066 0.0024 1.0000
vn -0.0000 -0.0001 1.0000
vn 0.0008 -0.0048 1.0000
vn -0.0001 -0.0001 -1.0000
vn 0.0076 0.0048 1.0000
vn -0.0005 -0.0003 -1.0000
vn 0.0001 0.0004 -1.0000
vn 0.4217 -0.9062 -0.0296
vn -0.9384 0.3435 -0.0378
vn -0.9048 -0.4258 -0.0000
vn -0.1574 -0.9865 0.0459
vn 0.9388 -0.3437 0.0235
vn 0.9998 0.0182 -0.0037
vn 0.0031 -0.0146 -0.9999
vn 0.3289 0.9436 0.0376
vn 0.2405 -0.9702 0.0300
vn 0.5091 0.8597 -0.0413
vn -0.5445 -0.8387 -0.0135
vn -0.7297 0.6837 -0.0044
vn 0.0001 0.0002 -1.0000
vn -0.0005 -0.0009 -1.0000
vn -0.0003 -0.0000 -1.0000
vn -0.8952 0.4457 -0.0000
vn -0.3775 0.9251 0.0399
vn 0.8875 0.4596 -0.0328
vn -0.3363 -0.9417 -0.0000
vn 0.9089 -0.4143 0.0477
vn 0.0071 0.0012 1.0000
vn 0.9870 0.1589 0.0228
vn 0.3029 0.9528 0.0187
vn -0.5080 -0.8571 -0.0855
vn 0.4534 0.8911 -0.0202
vn 0.0015 0.0009 1.0000
vn -0.3642 -0.9275 0.0848
vn -0.6577 0.7529 -0.0232
vt 0.826846 0.915935
vt 0.484375 0.531250
vt 0.562500 0.843750
vt 0.722409 0.053323
vt 0.546875 0.187500
vt 0.962028 0.410612
vt 0.000000 0.531250
vt 0.234375 1.000000
vt 0.062500 0.843750
vt 0.875000 0.093750
vt 0.468750 0.500000
vt 0.117928 0.139991
vt 0.379730 0.117399
vt 0.390625 0.843750
vt 0.968750 0.478254
vt 0.000000 0.343750
vt 0.000000 0.593750
vt 0.000000 0.937500
vt 0.968750 0.656250
vt 0.968750 0.937500
vt 0.968750 0.781250
vt 0.968750 0.531250
vt 0.937500 0.156250
vt 0.937500 0.343750
vt 0.968750 0.908521
vt 0.000000 0.875000
vt 0.906250 0.375000
vt 0.828125 1.000000
vt 0.828125 0.375000
vt 0.265625 0.093750
vt 0.484375 0.062657
vt 0.218750 0.031250
vt 0.718750 0.031250
vt 0.968750 0.750000
vt 0.735305 0.928323
vt 0.109375 1.000000
vt 0.000000 0.072167
vt 0.031437 1.000000
vt 0.640625 0.031250
vt 0.484375 0.906250
vt 0.484375 0.031250
vt 0.484375 0.875000
vt 0.906250 1.000000
vt 0.140625 0.812500
vt 0.192311 0.968750
vt 0.218750 0.812500
vt 0.250000 0.031250
vt 0.000000 0.656250
vt 0.968750 0.968750
vt 0.968750 0.843750
vt 0.000000 0.905404
vt 0.000000 0.968750
vt 0.000000 0.781250
vt 0.000000 0.156250
vt 0.218750 0.593750
vt 0.140625 0.593750
vt 0.192595 0.750000
vt 0.968750 0.031250
vt 0.149155 0.040710
vt 0.640625 0.906250
vt 0.500000 0.937125
vt 0.671875 0.906250
vt 0.625000 1.000000
vt 0.265625 1.000000
s 0
usemtl tex_11
f 58/75/71 61/76/71 59/77/71
f 61/76/72 51/78/72 63/79/72
f 61/76/73 58/75/73 49/80/73
f 49/80/74 51/78/74 61/76/74
f 62/81/75 57/82/75 56/83/75
f 51/78/76 49/80/76 50/84/76
f 64/85/77 53/86/77 48/87/77
f 53/86/78 60/88/78 62/81/78
f 62/81/91 60/88/91 57/82/91
f 48/87/92 53/86/92 52/121/92
f 53/86/93 64/85/93 60/88/93
usemtl tex_14
f 58/89/79 57/90/79 60/91/79
f 53/92/80 61/93/80 63/94/80
f 62/81/81 59/95/81 61/96/81
f 59/97/82 57/90/82 58/98/82
f 49/99/83 60/91/83 64/100/83
f 53/92/94 62/122/94 61/93/94
f 63/123/95 51/124/95 53/125/95
f 64/100/96 48/126/96 49/99/96
f 62/81/81 56/127/81 59/95/81
f 59/97/97 56/128/97 57/90/97
f 49/99/98 58/89/98 60/91/98
usemtl tex_7
f 65/101/84 50/102/84 48/103/84
f 53/104/85 55/105/85 52/106/85
f 52/107/86 54/108/86 51/109/86
f 49/110/87 47/111/87 46/112/87
f 48/113/88 46/114/88 47/115/88
f 53/104/89 54/116/89 55/105/89
f 66/117/90 52/103/90 51/102/90
f 52/118/75 65/119/75 48/120/75
f 51/129/99 50/130/99 66/131/99
f 65/101/100 66/117/100 50/102/100
f 52/107/101 55/132/101 54/108/101
f 49/110/102 48/133/102 47/111/102
f 48/113/103 50/134/103 46/114/103
f 46/135/104 50/136/104 49/137/104
f 53/104/105 51/138/105 54/116/105
f 66/117/106 65/101/106 52/103/106
o Object_11
v -0.352607 1.082258 -0.914708
v 0.379514 0.942611 -0.912211
v 0.033161 1.320207 -0.907709
v 0.031051 0.572087 -0.905579
v -0.352607 0.802965 -0.914752
v -0.216452 0.408465 -1.015981
v 0.212960 0.408465 -1.015991
v 0.534146 0.729651 -1.015957
v -0.534146 0.729651 -1.015990
v 0.212960 1.476758 -1.015986
v -0.216452 1.476758 -1.015977
v 0.534146 1.155572 -1.015987
v -0.534146 1.155572 -1.016020
vn -0.3476 -0.3438 0.8723
vn 0.5572 0.0001 0.8304
vn -0.0084 0.0258 0.9996
vn -0.0069 -0.0182 0.9998
vn 0.2816 0.2473 0.9271
vn -0.4873 0.0001 0.8732
vn 0.2911 -0.2912 0.9113
vn -0.0000 -0.5593 0.8289
vn -0.2080 0.3099 0.9277
vn -0.2088 -0.3101 0.9275
vn -0.0034 -0.0002 1.0000
vn 0.2930 0.2930 0.9101
vn -0.0000 0.5688 0.8225
vn -0.4870 -0.0001 0.8734
vn 0.2810 -0.2477 0.9272
vn -0.3478 0.3439 0.8722
vt 0.468750 0.031250
vt 0.218750 0.281250
vt 0.093750 0.187500
vt 0.843750 0.812500
vt 0.750000 0.609375
vt 0.968750 0.500000
vt 0.602445 0.225699
vt 0.385348 0.788671
vt 0.156250 0.500000
vt 0.000000 0.500000
vt 0.781250 0.125000
vt 0.156250 0.875000
vt 0.468750 1.000000
s 0
usemtl tex_15_transparent
f 72/139/107 71/140/107 75/141/107
f 78/142/108 68/143/108 74/144/108
f 70/145/109 68/143/109 71/140/109
f 68/143/110 69/146/110 67/147/110
f 78/142/111 69/146/111 68/143/111
f 75/141/112 67/147/112 79/148/112
f 74/144/113 70/145/113 73/149/113
f 73/149/114 70/145/114 72/139/114
f 77/150/115 67/147/115 69/146/115
f 72/139/116 70/145/116 71/140/116
f 68/143/117 67/147/117 71/140/117
f 78/142/118 76/151/118 69/146/118
f 76/151/119 77/150/119 69/146/119
f 75/141/120 71/140/120 67/147/120
f 74/144/121 68/143/121 70/145/121
f 77/150/122 79/148/122 67/147/122
o Object_2
v 2.141248 -0.078930 -0.915293
v 1.430203 0.183664 -0.915256
v 1.909422 0.400309 -0.904321
v 1.536108 -0.226925 -0.918207
v 1.797944 -0.324677 -0.918223
v 1.804927 -0.523673 -1.019449
v 1.403444 -0.377045 -1.019482
v 1.211430 0.034911 -1.019468
v 2.213392 -0.331660 -1.019475
v 1.766524 0.628408 -1.019482
v 2.168006 0.481779 -1.019485
v 1.358059 0.436394 -1.019491
v 2.360020 0.069823 -1.019451
vn 0.2195 -0.3176 0.9225
vn -0.0029 -0.0079 1.0000
vn -0.0102 -0.0278 0.9996
vn -0.1718 0.3333 0.9270
vn 0.1962 0.5371 0.8204
vn -0.4376 -0.2040 0.8757
vn -0.1651 -0.4518 0.8767
vn 0.3569 0.1664 0.9192
vn 0.2059 -0.4379 0.8751
vn -0.5254 0.1919 0.8290
vn -0.1684 0.3582 0.9183
vn 0.5252 -0.1919 0.8291
vn -0.3703 -0.1022 0.9233
vn -0.1665 -0.4461 0.8794
vn 0.3433 0.1448 0.9280
vt 0.468750 0.187500
vt 0.093750 0.187500
vt 0.187712 0.389882
vt 0.687500 0.250000
vt 0.749788 0.610118
vt 0.361123 0.781750
vt 0.843750 0.812500
vt 0.156250 0.875000
vt 0.468750 1.000000
vt 0.968750 0.500000
vt 0.781250 0.125000
vt 0.468750 0.031250
vt 0.000000 0.500000
s 0
usemtl tex_15_transparent
f 84/152/123 88/153/123 80/154/123
f 83/155/124 80/154/124 81/156/124
f 82/157/125 81/156/125 80/154/125
f 82/157/126 91/158/126 81/156/126
f 82/157/127 90/159/127 89/160/127
f 83/155/128 87/161/128 86/162/128
f 84/152/129 86/162/129 85/163/129
f 82/157/130 92/164/130 90/159/130
f 84/152/131 85/163/131 88/153/131
f 81/156/132 91/158/132 87/161/132
f 83/155/124 84/152/124 80/154/124
f 82/157/133 89/160/133 91/158/133
f 80/154/134 88/153/134 92/164/134
f 83/155/135 81/156/135 87/161/135
f 84/152/136 83/155/136 86/162/136
f 82/157/137 80/154/137 92/164/137
o Object_5
v -1.000558 -0.108338 -0.867821
v -0.966726 -0.168201 0.795478
v -1.259266 -0.095693 0.796149
v -1.466285 -0.422430 0.795961
v -1.471843 -0.387494 -0.865855
v -1.777129 -0.472350 -0.867800
v -1.728121 -0.516691 0.795968
v -2.024206 -0.425865 0.795835
v -2.637945 -0.778901 -0.580432
v -2.653216 -0.810551 0.803256
v -2.147059 0.436394 0.795949
v -1.756050 0.576040 0.795952
v -1.756050 0.576040 -0.865852
v -1.403444 0.411956 -0.865856
v -1.403444 0.411956 0.795949
v -2.314635 0.080297 0.795954
v -2.275682 0.278831 -0.866006
v -1.260306 0.020947 -0.865872
v -2.171498 -0.310713 -0.865879
v -1.519106 -0.750561 0.795938
v -1.478162 -0.735056 -0.865878
vn -0.0009 -0.0030 1.0000
vn 0.0053 0.0012 1.0000
vn -0.0075 0.0039 1.0000
vn -0.0002 -0.0001 1.0000
vn -0.0001 -0.0003 1.0000
vn -0.0000 -0.0000 -1.0000
vn -0.0003 0.0008 -1.0000
vn -0.0001 0.0002 -1.0000
vn -0.4219 -0.9066 -0.0000
vn 0.8666 0.4972 -0.0424
vn 0.3792 0.9248 0.0305
vn 0.9044 -0.4256 -0.0296
vn 0.4960 -0.8672 0.0438
vn -0.9388 -0.3437 -0.0235
vn -0.9870 0.1589 -0.0228
vn -0.0036 -0.0133 -0.9999
vn -0.3250 0.9451 0.0348
vn -0.0019 0.0018 -1.0000
vn 0.5080 -0.8571 0.0855
vn -0.4534 0.8911 0.0202
vn 0.5216 -0.8531 -0.0138
vn 0.6598 0.7511 0.0233
vn -0.0001 0.0001 -1.0000
vn 0.0004 -0.0001 -1.0000
vn 0.0005 -0.0002 -1.0000
vn 0.9838 0.1739 0.0438
vn -0.8875 0.4596 0.0328
vn 0.3363 -0.9417 -0.0000
vn -0.9620 -0.2732 -0.0000
vn -0.0064 -0.0000 1.0000
vn -0.9998 0.0182 0.0037
vn -0.3026 0.9530 0.0185
vn -0.2405 -0.9702 -0.0300
vn -0.5091 0.8597 0.0413
vn 0.3578 -0.9305 0.0791
vn 0.7456 0.6664 -0.0042
vt 0.724899 0.051331
vt 0.984375 0.500000
vt 0.523327 0.687059
vt 0.546875 0.187500
vt 0.882095 0.117399
vt 0.906250 0.843750
vt 0.734375 1.000000
vt 0.234375 1.000000
vt 0.000000 0.531250
vt 0.062500 0.843750
vt 0.250000 0.031250
vt 0.446404 0.410618
vt 0.375000 0.093750
vt 0.390625 0.843750
vt 0.130629 0.129104
vt 0.000000 0.593750
vt 0.968750 0.343750
vt 0.968750 0.593750
vt 0.968750 0.937500
vt 0.000000 0.656250
vt 0.000000 0.937500
vt 0.000000 0.890888
vt 0.968750 0.843750
vt 0.968750 0.968750
vt 0.968750 0.655897
vt 0.000000 0.781250
vt 0.937500 0.343750
vt 0.000000 0.156250
vt 0.937500 0.156250
vt 0.000000 0.908518
vt 0.968750 0.875000
vt 0.828125 0.375000
vt 0.906250 1.000000
vt 0.906250 0.375000
vt 0.484375 0.062657
vt 0.265625 0.093750
vt 0.218750 0.031250
vt 0.968750 0.750000
vt 0.718750 0.031250
vt 0.733811 0.926331
vt 0.109375 0.093750
vt 0.000000 0.051833
vt 0.156250 0.031250
vt 0.016187 1.000000
vt 0.109375 1.000000
vt 0.484375 0.031250
vt 0.640625 0.906250
vt 0.640625 0.031250
vt 0.484375 0.875000
vt 0.828125 1.000000
vt 0.182405 0.968750
vt 0.140625 0.812500
vt 0.218750 0.812500
vt 0.000000 0.343750
vt 0.968750 0.656250
vt 0.182689 0.750000
vt 0.140625 0.593750
vt 0.218750 0.593750
vt 0.968750 0.031250
vt 0.484375 0.906250
vt 0.265625 1.000000
s 0
usemtl tex_11
f 98/165/138 110/166/138 109/167/138
f 98/165/139 109/167/139 111/168/139
f 97/169/140 110/166/140 98/165/140
f 110/166/141 106/170/141 109/167/141
f 109/167/142 106/170/142 105/171/142
f 104/172/143 108/173/143 103/174/143
f 99/175/144 95/176/144 96/177/144
f 107/178/145 100/179/145 108/173/145
f 104/172/143 107/178/143 108/173/143
f 99/175/161 100/179/161 95/176/161
f 107/178/162 95/176/162 100/179/162
usemtl tex_14
f 107/180/146 105/181/146 106/182/146
f 111/183/147 108/184/147 100/185/147
f 100/186/148 98/187/148 111/188/148
f 109/189/149 103/190/149 108/173/149
f 105/191/150 103/192/150 109/193/150
f 95/194/151 106/182/151 110/195/151
f 107/180/146 104/218/146 105/181/146
f 111/183/163 109/219/163 108/184/163
f 110/195/164 97/188/164 95/194/164
f 105/191/165 104/218/165 103/192/165
f 95/194/166 107/180/166 106/182/166
usemtl tex_7
f 96/196/152 113/197/152 112/198/152
f 102/199/153 100/200/153 99/201/153
f 101/202/154 99/203/154 98/204/154
f 95/205/155 94/206/155 96/207/155
f 93/208/156 95/205/156 97/209/156
f 94/210/157 97/211/157 96/212/157
f 101/213/158 100/200/158 102/199/158
f 98/214/159 112/198/159 113/197/159
f 112/215/160 99/216/160 96/217/160
f 113/220/167 97/221/167 98/222/167
f 96/196/168 97/214/168 113/197/168
f 101/202/169 102/223/169 99/203/169
f 93/208/170 94/206/170 95/205/170
f 94/210/171 93/224/171 97/211/171
f 101/213/172 98/225/172 100/200/172
f 98/214/173 99/196/173 112/198/173
o Object_6
v -2.141296 -0.078150 -0.915224
v -1.430155 0.182884 -0.915229
v -1.909448 0.400273 -0.904338
v -1.536108 -0.226925 -0.918235
v -1.797944 -0.324677 -0.918187
v -1.804927 -0.523673 -1.019461
v -1.403444 -0.377045 -1.019462
v -1.211430 0.034911 -1.019482
v -2.213392 -0.331660 -1.019456
v -1.766524 0.628408 -1.019449
v -2.168006 0.481779 -1.019444
v -1.358059 0.436394 -1.019454
v -2.360020 0.069823 -1.019414
vn -0.2059 -0.4381 0.8750
vn 0.0031 -0.0077 1.0000
vn 0.5249 0.1917 0.8293
vn 0.1683 0.3580 0.9184
vn 0.3706 -0.1026 0.9231
vn -0.5248 -0.1917 0.8294
vn 0.1666 -0.4458 0.8795
vn -0.3436 0.1454 0.9278
vn -0.2196 -0.3169 0.9227
vn 0.0030 -0.0081 1.0000
vn 0.0102 -0.0277 0.9996
vn 0.1718 0.3324 0.9274
vn -0.1961 0.5369 0.8206
vn 0.4375 -0.2039 0.8758
vn 0.1651 -0.4519 0.8766
vn -0.3568 0.1664 0.9193
vt 0.468750 0.187500
vt 0.093750 0.187500
vt 0.468750 0.031250
vt 0.687500 0.250000
vt 0.187544 0.390471
vt 0.968750 0.500000
vt 0.843750 0.812500
vt 0.749956 0.609529
vt 0.361095 0.781741
vt 0.468750 1.000000
vt 0.000000 0.500000
vt 0.781250 0.125000
vt 0.156250 0.875000
s 0
usemtl tex_15_transparent
f 118/226/174 122/227/174 119/228/174
f 117/229/175 114/230/175 118/226/175
f 121/231/176 125/232/176 115/233/176
f 116/234/177 125/232/177 123/235/177
f 117/229/178 121/231/178 115/233/178
f 126/236/179 122/227/179 114/230/179
f 118/226/180 120/237/180 117/229/180
f 116/234/181 126/236/181 114/230/181
f 118/226/182 114/230/182 122/227/182
f 117/229/183 115/233/183 114/230/183
f 116/234/184 114/230/184 115/233/184
f 116/234/185 115/233/185 125/232/185
f 116/234/186 123/235/186 124/238/186
f 117/229/187 120/237/187 121/231/187
f 118/226/188 119/228/188 120/237/188
f 116/234/189 124/238/189 126/236/189
